<?xml version="1.0" encoding="UTF-8"?><svg id="Layer_2" xmlns="http://www.w3.org/2000/svg" viewBox="0 0 335.94 89.78"><defs><style>.cls-1{fill:#fff;}.cls-2{fill:#69b42d;}</style></defs><g id="Logo-Dark"><g><path id="T" class="cls-1" d="M0,11.45H0C0,5.14,5.11,.03,11.42,.03H63.45c6.31,0,11.42,5.11,11.42,11.42h0s-31.24,0-31.24,0V89.78h-12.89V11.45H0Z"/><path id="L" class="cls-1" d="M295.51,12.92V78.36s29.01,0,29.01,0c6.31,0,11.42,5.11,11.42,11.42h0s-53.32,0-53.32,0V.03h0c7.12,0,12.89,5.77,12.89,12.89Z"/><polygon id="Triangle_-_Top" class="cls-2" points="177.56 .03 203.79 25.64 230.02 .03 177.56 .03"/><polygon id="Triangle_-_Bottom" class="cls-2" points="230.02 89.78 203.79 64.17 177.56 89.78 230.02 89.78"/><path id="E_Centre" class="cls-2" d="M86.94,32.88h38.44c6.12,0,11.08,4.96,11.08,11.08h0c0,6.12-4.96,11.08-11.08,11.08h-38.44v-22.17Z"/><path id="EX_-_Left" class="cls-1" d="M86.94,11.45h0c0-6.31,5.11-11.42,11.42-11.42h55.49s44.37,44.19,44.37,44.19l-44.37,45.56h-55.49c-6.31,0-11.42-5.11-11.42-11.42h0s61.64,0,61.64,0l33.06-34.14L148.58,11.47l-61.64-.02Z"/><polygon id="X_-_Right" class="cls-1" points="209.36 44.22 253.73 0 270.54 .03 225.94 44.17 270.54 89.78 253.7 89.78 209.36 44.22"/></g></g></svg>